<?xml version="1.0" standalone="no"?>
<!DOCTYPE svg PUBLIC "-//W3C//DTD SVG 20010904//EN"
 "http://www.w3.org/TR/2001/REC-SVG-20010904/DTD/svg10.dtd">
<svg version="1.0" xmlns="http://www.w3.org/2000/svg"
 width="512.000000pt" height="512.000000pt" viewBox="0 0 512.000000 512.000000"
 preserveAspectRatio="xMidYMid meet">

<g transform="translate(0.000000,512.000000) scale(0.100000,-0.100000)"
fill="#000000" stroke="none">
<path d="M2523 4780 c-26 -6 -172 -145 -670 -638 -351 -347 -832 -825 -1070
-1064 -377 -379 -433 -438 -442 -475 -13 -48 -7 -83 20 -129 34 -57 65 -64
273 -64 l186 0 2 -989 c3 -988 3 -990 24 -1018 12 -15 36 -37 55 -48 33 -19
52 -20 564 -20 512 0 531 1 563 20 18 11 43 36 55 55 22 35 22 37 25 682 l3
648 449 0 449 0 3 -647 c3 -646 3 -648 25 -683 12 -19 37 -44 55 -55 32 -19
51 -20 563 -20 512 0 531 1 564 20 19 11 43 33 55 48 21 28 21 30 24 1018 l2
989 184 0 c102 0 195 4 208 9 67 25 107 108 88 184 -9 38 -109 141 -1068 1096
-581 579 -1066 1059 -1077 1066 -28 17 -74 24 -112 15z"/>
</g>
</svg>
