<?xml version="1.0" standalone="no"?>
<!DOCTYPE svg PUBLIC "-//W3C//DTD SVG 20010904//EN"
 "http://www.w3.org/TR/2001/REC-SVG-20010904/DTD/svg10.dtd">
<svg version="1.0" xmlns="http://www.w3.org/2000/svg"
 width="512.000000pt" height="512.000000pt" viewBox="0 0 512.000000 512.000000"
 preserveAspectRatio="xMidYMid meet">

<g transform="translate(0.000000,512.000000) scale(0.100000,-0.100000)"
fill="#000000" stroke="none">
<path d="M2032 4395 c-612 -46 -1134 -89 -1159 -96 -56 -15 -106 -57 -136
-113 l-22 -41 -3 -1235 c-2 -1207 -2 -1236 17 -1300 11 -36 38 -94 60 -128 45
-68 536 -708 584 -759 41 -44 107 -73 180 -79 68 -6 2542 139 2646 155 83 13
148 53 181 111 l25 45 3 1388 c3 1548 9 1416 -70 1480 -58 47 -801 567 -858
600 -65 38 -151 57 -250 56 -47 -1 -586 -39 -1198 -84z m1307 -146 c66 -15 98
-35 320 -196 193 -140 233 -174 219 -188 -7 -7 -2123 -136 -2278 -138 -99 -2
-121 1 -160 19 -58 28 -394 294 -398 316 -9 45 -6 45 1065 123 560 41 1041 75
1068 77 60 4 104 0 164 -13z m755 -653 c64 -27 61 39 61 -1256 0 -1149 0
-1176 -20 -1207 -10 -18 -34 -40 -52 -48 -26 -13 -277 -30 -1250 -86 -1356
-79 -1284 -78 -1330 -10 l-23 34 0 1183 0 1182 25 31 c14 16 35 33 47 37 12 3
573 39 1247 79 674 40 1234 73 1244 74 10 0 32 -5 51 -13z"/>
<path d="M3429 3175 c-108 -7 -205 -17 -215 -23 -40 -21 -67 -61 -68 -99 l-1
-38 92 -10 c50 -6 94 -13 97 -16 4 -3 5 -235 4 -514 l-3 -509 -379 578 c-209
317 -382 578 -385 580 -15 9 -579 -37 -608 -49 -41 -17 -73 -69 -73 -116 0
-34 2 -37 38 -43 20 -3 56 -6 79 -6 80 0 73 73 73 -745 l0 -732 -67 -18 c-38
-9 -78 -23 -90 -31 -27 -17 -50 -81 -34 -97 7 -7 94 -5 298 7 318 19 358 27
387 85 32 60 32 60 -136 96 l-78 17 0 557 0 556 49 -75 c27 -41 195 -303 373
-581 179 -278 342 -527 363 -553 54 -63 104 -86 191 -86 72 0 125 13 212 50
l52 22 0 823 c0 719 2 824 15 829 8 3 37 8 65 12 28 4 61 15 74 25 25 19 41
75 30 103 -7 19 -61 20 -355 1z"/>
</g>
</svg>
